<?xml version="1.0" encoding="UTF-8" standalone="no"?>
<!-- Generator: Adobe Illustrator 19.0.0, SVG Export Plug-In . SVG Version: 6.00 Build 0)  -->

<svg
   xmlns:dc="http://purl.org/dc/elements/1.1/"
   xmlns:cc="http://creativecommons.org/ns#"
   xmlns:rdf="http://www.w3.org/1999/02/22-rdf-syntax-ns#"
   xmlns:svg="http://www.w3.org/2000/svg"
   xmlns="http://www.w3.org/2000/svg"
   xmlns:sodipodi="http://sodipodi.sourceforge.net/DTD/sodipodi-0.dtd"
   xmlns:inkscape="http://www.inkscape.org/namespaces/inkscape"
   version="1.1"
   id="Capa_1"
   x="0px"
   y="0px"
   viewBox="0 0 121.669 121.669"
   style="enable-background:new 0 0 121.669 121.669;"
   xml:space="preserve"
   sodipodi:docname="dead.svg"
   inkscape:version="0.92.5 (2060ec1f9f, 2020-04-08)"><metadata
   id="metadata47"><rdf:RDF><cc:Work
       rdf:about=""><dc:format>image/svg+xml</dc:format><dc:type
         rdf:resource="http://purl.org/dc/dcmitype/StillImage" /></cc:Work></rdf:RDF></metadata><defs
   id="defs45" /><sodipodi:namedview
   pagecolor="#ffffff"
   bordercolor="#666666"
   borderopacity="1"
   objecttolerance="10"
   gridtolerance="10"
   guidetolerance="10"
   inkscape:pageopacity="0"
   inkscape:pageshadow="2"
   inkscape:window-width="1366"
   inkscape:window-height="732"
   id="namedview43"
   showgrid="false"
   inkscape:zoom="3.8793777"
   inkscape:cx="91.320135"
   inkscape:cy="61.548776"
   inkscape:window-x="0"
   inkscape:window-y="0"
   inkscape:window-maximized="1"
   inkscape:current-layer="g10" />
<g
   id="g10"
   transform="translate(0,0.2577733)">
	<path
   d="M 60.835,121.669 C 27.291,121.669 0.001,94.379 0.001,60.834 0.001,27.29 10.208206,8.5413968 60.835,0 c 33.076556,-5.5804441 60.834,27.29 60.834,60.834 0,33.545 -27.29,60.835 -60.834,60.835 z m 0,-116.4423199 c -30.235,0 -54.3184534,15.8347079 -54.3184534,46.0697079 0,30.236 18.6702144,65.403702 48.9052144,65.403702 30.235,0 58.802259,-22.290057 62.824969,-52.257264 C 121.85556,37.558879 91.071,5.2266801 60.835,5.2266801 Z"
   id="path2"
   inkscape:connector-curvature="0"
   sodipodi:nodetypes="ssssssssss" />
	<path
   d="m 86.061652,92.281534 c -1.822916,-1.359693 -0.728859,-0.641897 -5.22668,-1.804413 0,-5.642 -14.842414,-4.341024 -22.776705,-4.559988 -6.680636,-0.184366 -13.247685,5.294588 -13.75464,6.879947 L 39.592493,91.765987 C 43.636092,84.548958 50.820939,81.302402 60.636,81.206 c 10.039516,-0.09861 25.425652,2.124534 25.425652,11.075534 z"
   id="path4"
   inkscape:connector-curvature="0"
   sodipodi:nodetypes="ccsccsc" />
	<polygon
   points="88.006,47.155 81.892,41.042 77.65,45.285 83.763,51.398 77.65,57.512 81.892,61.755 88.006,55.642 94.119,61.755 98.363,57.512 92.249,51.398 98.363,45.285 94.119,41.042 "
   id="polygon6"
   transform="translate(-1.5466398,-1.0310932)" />
	<a
   id="a49"><polygon
     transform="matrix(1.0497776,0,0,1,10.694916,1.213833)"
     id="polygon8"
     points="33.266,55.642 39.379,61.755 43.622,57.512 37.509,51.398 43.622,45.285 39.379,41.042 33.266,47.155 27.151,41.042 22.908,45.285 29.022,51.398 22.908,57.512 27.151,61.755 " /></a>
</g>
<g
   id="g12">
</g>
<g
   id="g14">
</g>
<g
   id="g16">
</g>
<g
   id="g18">
</g>
<g
   id="g20">
</g>
<g
   id="g22">
</g>
<g
   id="g24">
</g>
<g
   id="g26">
</g>
<g
   id="g28">
</g>
<g
   id="g30">
</g>
<g
   id="g32">
</g>
<g
   id="g34">
</g>
<g
   id="g36">
</g>
<g
   id="g38">
</g>
<g
   id="g40">
</g>
</svg>